<?xml version="1.0" encoding="UTF-8"?>
<svg version="1.1" xmlns="http://www.w3.org/2000/svg" width="500" height="500">
<path d="M0 0 C97.2347145 0 97.2347145 0 110 2.6875 C111.25200195 2.94696411 111.25200195 2.94696411 112.52929688 3.21166992 C129.74335597 6.98257148 144.66631323 14.39130068 158 26 C158.61359375 26.51820313 159.2271875 27.03640625 159.859375 27.5703125 C175.01797377 41.40774899 180.96321119 61.63993256 185 81 C185.17869629 81.84159668 185.35739258 82.68319336 185.54150391 83.55029297 C186.19719401 87.05359142 186.37103115 90.57258301 186.5625 94.125 C186.6042334 94.88562744 186.6459668 95.64625488 186.68896484 96.42993164 C186.99411389 102.29813458 187.15565437 108.12404748 187 114 C186.99484375 115.25167969 186.9896875 116.50335938 186.984375 117.79296875 C186.81432012 127.109393 185.39270619 135.87034215 183.25 144.9375 C183.01007324 145.96697754 182.77014648 146.99645508 182.52294922 148.05712891 C178.53335481 164.03351245 170.63296953 178.3472801 159 190 C158.31292969 190.69867188 157.62585938 191.39734375 156.91796875 192.1171875 C117.61601072 229.59623468 43.5486902 217 0 217 C0 145.39 0 73.78 0 0 Z M44 38 C43.90137962 39.81996506 43.87367866 41.64379566 43.87301636 43.46643066 C43.87019653 44.65275589 43.86737671 45.83908112 43.86447144 47.06135559 C43.86649567 48.3746434 43.8685199 49.68793121 43.87060547 51.04101562 C43.86925145 52.42868597 43.86747152 53.81635596 43.86529541 55.20402527 C43.86072112 58.98284721 43.86251062 62.76164196 43.8656745 66.5404644 C43.86819812 70.48649038 43.86586055 74.43251397 43.86428833 78.37854004 C43.86246664 85.00643331 43.86487292 91.63431545 43.86962891 98.26220703 C43.87507153 105.93583203 43.87330887 113.60943047 43.8678025 121.28305483 C43.86327135 127.85968393 43.86262083 134.43630501 43.86524117 141.01293516 C43.86680393 144.94603123 43.86699773 148.8791148 43.86370468 152.81221008 C43.86082594 156.50901349 43.86280171 160.2057825 43.86859894 163.90258217 C43.87056216 165.91460243 43.86757265 167.92662558 43.86447144 169.93864441 C43.86729126 171.12496964 43.87011108 172.31129486 43.87301636 173.53356934 C43.87339338 174.57113121 43.87377041 175.60869308 43.87415886 176.67769623 C43.73866589 178.96126932 43.73866589 178.96126932 45 180 C48.08433425 180.1264464 51.14490561 180.18876793 54.23046875 180.203125 C55.17247635 180.20882507 56.11448395 180.21452515 57.08503723 180.22039795 C59.09175488 180.22987399 61.09848827 180.2363922 63.10522461 180.24023438 C66.12968769 180.24981683 69.15343466 180.28076184 72.17773438 180.3125 C91.54572279 180.4185933 108.84197515 178.11577599 124 165 C137.55477479 151.30691118 141.58159075 131.22430941 141.546875 112.5390625 C141.53849609 111.79043945 141.53011719 111.04181641 141.52148438 110.27050781 C141.4999959 107.99956636 141.5214587 105.73178588 141.546875 103.4609375 C141.58232346 84.85325387 137.56480378 67.01331805 124.359375 53.1875 C120.84462274 49.92878929 117.15394395 47.37261303 113 45 C112.06607422 44.43345703 112.06607422 44.43345703 111.11328125 43.85546875 C100.27547527 37.78902389 86.9171815 36.83666189 74.72265625 36.8671875 C73.87070175 36.86623077 73.01874725 36.86527405 72.14097595 36.86428833 C70.35692266 36.86361252 68.57286682 36.86542468 66.78881836 36.86962891 C64.04600619 36.87503249 61.30335433 36.86963997 58.56054688 36.86328125 C56.8229163 36.86394123 55.08528583 36.86522072 53.34765625 36.8671875 C52.52483658 36.86516327 51.70201691 36.86313904 50.85426331 36.86105347 C47.12339346 36.5167616 47.12339346 36.5167616 44 38 Z " fill="#FDFCFC" transform="translate(162,155)"/>
<path d="M0 0 C16.94563378 0.09526049 33.50695165 0.56981757 46.89990234 12.50561523 C58.85661793 25.25504124 59.89876556 41.10158936 59.89990234 57.80639648 C59.91171826 59.34948957 59.92509247 60.8925714 59.93992615 62.43563843 C59.97573813 66.45860967 59.99619868 70.48148123 60.01147461 74.50457764 C60.03650944 80.94703429 60.07657294 87.38927085 60.13337517 93.8315239 C60.14944673 96.05583921 60.15345661 98.27993737 60.15638733 100.50430298 C59.71563086 116.58013455 59.71563086 116.58013455 66.45849609 130.32983398 C73.54956868 134.13895971 80.52945308 135.03751593 88.45849609 135.45483398 C90.50065147 135.57436238 92.54237648 135.70157184 94.58349609 135.83764648 C95.91767578 135.90943115 95.91767578 135.90943115 97.27880859 135.98266602 C99.45849609 136.32983398 99.45849609 136.32983398 101.45849609 138.32983398 C101.71728516 140.43701172 101.71728516 140.43701172 101.72412109 143.01342773 C101.72798828 144.40464844 101.72798828 144.40464844 101.73193359 145.82397461 C101.72419922 146.7952832 101.71646484 147.7665918 101.70849609 148.76733398 C101.72009766 150.21849609 101.72009766 150.21849609 101.73193359 151.69897461 C101.72935547 152.62774414 101.72677734 153.55651367 101.72412109 154.51342773 C101.72186523 155.36477295 101.71960938 156.21611816 101.71728516 157.09326172 C101.45849609 159.32983398 101.45849609 159.32983398 99.45849609 162.32983398 C96.5696155 162.66706901 93.85396434 162.83794944 90.95849609 162.89233398 C77.22983562 163.08913663 77.22983562 163.08913663 65.45849609 169.32983398 C60.99161593 176.05169866 60.34118986 182.72779853 60.30078125 190.68945312 C60.29570053 191.40096527 60.29061981 192.11247742 60.28538513 192.84555054 C60.27473308 194.38254148 60.26609292 195.91954744 60.2592659 197.45656013 C60.24738234 199.90124951 60.22790333 202.34576962 60.20614624 204.79039001 C60.14486737 211.73861935 60.09069382 218.68683087 60.05712891 225.63525391 C60.03600229 229.89580293 60.0005563 234.15604098 59.95637131 238.41641045 C59.94235038 240.02724956 59.93352086 241.63814366 59.93031693 243.2490406 C59.8957917 258.95360164 58.26627465 273.60626714 47.23193359 285.70483398 C34.52162724 297.3512821 17.71330858 298.34093061 1.39599609 298.51733398 C0.54956543 298.53054688 -0.29686523 298.54375977 -1.16894531 298.55737305 C-3.29448359 298.55995938 -5.41954594 298.45317932 -7.54150391 298.32983398 C-9.54150391 296.32983398 -9.54150391 296.32983398 -9.78442383 294.29858398 C-9.78031494 293.48389648 -9.77620605 292.66920898 -9.77197266 291.82983398 C-9.77003906 290.94295898 -9.76810547 290.05608398 -9.76611328 289.14233398 C-9.75386719 288.21420898 -9.74162109 287.28608398 -9.72900391 286.32983398 C-9.72835938 285.40170898 -9.72771484 284.47358398 -9.72705078 283.51733398 C-9.68187578 276.61057773 -9.68187578 276.61057773 -8.54150391 274.32983398 C-7.71126709 274.30796021 -7.71126709 274.30796021 -6.86425781 274.28564453 C9.79581358 274.31500895 9.79581358 274.31500895 24.89599609 268.20483398 C31.84119478 260.41265985 30.89924481 250.1649468 30.89990234 240.30639648 C30.91170022 238.75376151 30.92507026 237.20113778 30.93992615 235.64852905 C30.97593281 231.57906954 30.99625409 227.50970955 31.01147461 223.44012451 C31.03639306 216.93592846 31.07647992 210.43195246 31.13337517 203.92795944 C31.14949822 201.67535781 31.15346277 199.42297035 31.15638733 197.1703186 C31.22512513 183.69103357 32.1828286 170.43889612 41.60693359 159.93530273 C44.99131464 156.82236522 48.4270078 154.22761606 52.45849609 152.01733398 C55.73644517 150.61567832 55.73644517 150.61567832 56.45849609 147.32983398 C55.57162109 147.07202148 54.68474609 146.81420898 53.77099609 146.54858398 C44.53954052 143.15210505 38.62406776 135.98253021 34.45849609 127.32983398 C30.77277366 118.55430438 31.30315899 108.9596002 31.2592659 99.61017036 C31.24734617 97.29243474 31.22786386 94.97487477 31.20614624 92.6572113 C31.14495221 86.07280383 31.09053122 79.48842083 31.05712891 72.90380859 C31.03608201 68.86141216 31.00071008 64.81934856 30.95637131 60.77714348 C30.94230249 59.24673332 30.93350969 57.71626442 30.93031693 56.18579292 C31.16175532 42.28434572 31.16175532 42.28434572 24.83349609 30.45483398 C17.39482456 25.77122598 10.11612458 24.87435398 1.45849609 24.70483398 C-0.41661469 24.65408674 -2.29162964 24.59961205 -4.16650391 24.54077148 C-5.39240234 24.51442627 -5.39240234 24.51442627 -6.64306641 24.48754883 C-8.54150391 24.32983398 -8.54150391 24.32983398 -9.54150391 23.32983398 C-9.79249314 19.85774592 -9.72672487 16.37242779 -9.72900391 12.89233398 C-9.74125 11.91200195 -9.75349609 10.93166992 -9.76611328 9.92163086 C-9.76901367 8.516875 -9.76901367 8.516875 -9.77197266 7.08374023 C-9.77608154 6.22079346 -9.78019043 5.35784668 -9.78442383 4.46875 C-9.15772053 -1.04938832 -4.32638036 0.04368227 0 0 Z " fill="#727070" transform="translate(336.54150390625,120.670166015625)"/>
<path d="M0 0 C0.93972656 -0.01224609 1.87945312 -0.02449219 2.84765625 -0.03710938 C3.74355469 -0.03904297 4.63945312 -0.04097656 5.5625 -0.04296875 C6.77099609 -0.04913208 6.77099609 -0.04913208 8.00390625 -0.05541992 C10 0.1875 10 0.1875 12 2.1875 C12.24291992 4.32641602 12.24291992 4.32641602 12.23046875 6.94140625 C12.22853516 7.87791016 12.22660156 8.81441406 12.22460938 9.77929688 C12.21236328 10.75962891 12.20011719 11.73996094 12.1875 12.75 C12.1865332 14.22629883 12.1865332 14.22629883 12.18554688 15.73242188 C12.14017532 23.04732468 12.14017532 23.04732468 11 24.1875 C9.55673358 24.3084117 8.10813899 24.36707533 6.66015625 24.3984375 C5.31147461 24.44097656 5.31147461 24.44097656 3.93554688 24.484375 C2.05551236 24.53549762 0.17528426 24.58003143 -1.70507812 24.6171875 C-9.59557531 24.88522987 -17.84745665 25.46219751 -23.5 31.5 C-27.52092624 36.51446906 -28.24931585 41.98109556 -28.27124023 48.25585938 C-28.27908035 49.27682709 -28.27908035 49.27682709 -28.28707886 50.31842041 C-28.29727214 51.78828139 -28.30309106 53.25817799 -28.30496025 54.72807312 C-28.3086519 57.06810949 -28.32545863 59.40773245 -28.34571838 61.74768066 C-28.40083156 68.39811433 -28.43161642 75.04860996 -28.45629883 81.69921875 C-28.47234292 85.77820808 -28.50274159 89.85690774 -28.54106331 93.93574524 C-28.55257516 95.47598653 -28.55864243 97.01628003 -28.55874443 98.55656433 C-28.56006667 113.22113584 -29.32957862 128.0498104 -39.95703125 139.25 C-48.60559896 147.1875 -48.60559896 147.1875 -54 147.1875 C-52.71863139 151.03160583 -51.40185441 151.33967644 -47.9375 153.3125 C-38.98222776 158.88337714 -33.86185151 164.79388375 -30.69140625 174.90234375 C-28.84157034 183.69167711 -28.85476848 192.58602356 -28.83133507 201.5324707 C-28.82405452 203.7372331 -28.80830835 205.94178729 -28.78999329 208.14648438 C-28.73803988 214.40752431 -28.68956402 220.66843623 -28.67407227 226.9296875 C-28.66392916 230.77995942 -28.63446316 234.62968245 -28.59275246 238.47973633 C-28.58054457 239.93395824 -28.57530227 241.38825788 -28.57755089 242.8425293 C-28.58852121 252.24576099 -28.44510837 261.50843856 -21.625 268.6875 C-16.90114559 271.38684538 -12.33797164 272.43115153 -6.9453125 272.8203125 C-5.83671875 272.90410156 -4.728125 272.98789062 -3.5859375 273.07421875 C-2.44382812 273.15285156 -1.30171875 273.23148437 -0.125 273.3125 C1.62296875 273.44205078 1.62296875 273.44205078 3.40625 273.57421875 C6.27040644 273.78550898 9.13488502 273.98970849 12 274.1875 C12.02887236 277.99998426 12.04675492 281.8124407 12.0625 285.625 C12.07087891 286.71361328 12.07925781 287.80222656 12.08789062 288.92382812 C12.09111328 289.95830078 12.09433594 290.99277344 12.09765625 292.05859375 C12.10289307 293.01693115 12.10812988 293.97526855 12.11352539 294.96264648 C12 297.1875 12 297.1875 11 298.1875 C-4.10039021 298.8303879 -20.2250905 299.18505616 -34 292.1875 C-34.69480469 291.83945312 -35.38960937 291.49140625 -36.10546875 291.1328125 C-44.24043761 286.56967716 -50.89673373 279.00145552 -54 270.1875 C-56.59180452 260.20288583 -57.4324485 250.66323235 -57.41069031 240.3878994 C-57.40611396 238.03554288 -57.42047712 235.68390071 -57.43908691 233.33161926 C-57.48155217 227.50106205 -57.49309729 221.67052847 -57.50531006 215.83984375 C-57.51690241 210.88023074 -57.54061079 205.92095355 -57.58000183 200.96148109 C-57.59341579 198.66274286 -57.58943358 196.36448047 -57.58459473 194.0657196 C-57.61764336 185.10367858 -57.73873194 176.10054639 -63.375 168.6875 C-67.59037881 164.67285351 -71.39444326 163.95497255 -77.10546875 163.66015625 C-78.25337891 163.58990234 -79.40128906 163.51964844 -80.58398438 163.44726562 C-82.99780292 163.31512705 -85.41187613 163.18756536 -87.82617188 163.06445312 C-88.97021484 162.99291016 -90.11425781 162.92136719 -91.29296875 162.84765625 C-92.3399292 162.79230713 -93.38688965 162.73695801 -94.46557617 162.67993164 C-95.30193604 162.5174292 -96.1382959 162.35492676 -97 162.1875 C-99.10448454 159.03077318 -99.25548261 158.2356891 -99.265625 154.625 C-99.26820312 153.74585938 -99.27078125 152.86671875 -99.2734375 151.9609375 C-99.26570313 151.04570312 -99.25796875 150.13046875 -99.25 149.1875 C-99.25773437 148.27226562 -99.26546875 147.35703125 -99.2734375 146.4140625 C-99.27085938 145.53492188 -99.26828125 144.65578125 -99.265625 143.75 C-99.26336914 142.94691406 -99.26111328 142.14382813 -99.25878906 141.31640625 C-99 139.1875 -99 139.1875 -97 136.1875 C-94.11111941 135.85026497 -91.39546825 135.67938455 -88.5 135.625 C-74.77133952 135.42819735 -74.77133952 135.42819735 -63 129.1875 C-58.78023982 122.71539194 -57.88373253 116.65614721 -57.82641602 109.00146484 C-57.819729 108.29663971 -57.81304199 107.59181458 -57.80615234 106.8656311 C-57.79214865 105.34062772 -57.78023988 103.81560396 -57.77020454 102.29056931 C-57.75369558 99.86751717 -57.73045091 97.444614 -57.70530701 95.02163696 C-57.63482794 88.1341302 -57.57468817 81.24656108 -57.52319336 74.35888672 C-57.49116771 70.13846296 -57.44983106 65.91820969 -57.40299797 61.69792557 C-57.38711353 60.09938283 -57.37473049 58.50080092 -57.36609077 56.90220261 C-57.27543294 40.35884549 -56.06748281 24.67270336 -44 12.1875 C-31.51216361 1.06277251 -15.96982318 0.01132612 0 0 Z " fill="#727070" transform="translate(161,120.8125)"/>
<path d="M0 0 C1.17046875 0.11085938 2.3409375 0.22171875 3.546875 0.3359375 C4.43890625 0.43132812 5.3309375 0.52671875 6.25 0.625 C6.27887236 4.43748426 6.29675492 8.2499407 6.3125 12.0625 C6.32087891 13.15111328 6.32925781 14.23972656 6.33789062 15.36132812 C6.34272461 16.91303711 6.34272461 16.91303711 6.34765625 18.49609375 C6.35551147 19.93359985 6.35551147 19.93359985 6.36352539 21.40014648 C6.25 23.625 6.25 23.625 5.25 24.625 C3.85567314 24.72399441 2.45642894 24.75579563 1.05859375 24.7578125 C-0.23594727 24.75974609 -0.23594727 24.75974609 -1.55664062 24.76171875 C-2.46607422 24.75785156 -3.37550781 24.75398438 -4.3125 24.75 C-5.19486328 24.75386719 -6.07722656 24.75773437 -6.98632812 24.76171875 C-12.33213358 24.7538166 -17.46071902 24.40265391 -22.75 23.625 C-22.75 23.295 -22.75 22.965 -22.75 22.625 C-13.84 22.625 -4.93 22.625 4.25 22.625 C4.25 15.695 4.25 8.765 4.25 1.625 C-0.7 1.625 -5.65 1.625 -10.75 1.625 C-6.35405194 -0.57297403 -4.75732024 -0.47573202 0 0 Z " fill="#574D4D" transform="translate(166.75,394.375)"/>
<path d="M0 0 C0 3.2002215 -0.63242392 5.61483471 -1.5 8.6875 C-1.7784375 9.68136719 -2.056875 10.67523438 -2.34375 11.69921875 C-2.5603125 12.45847656 -2.776875 13.21773437 -3 14 C-3.99 14 -4.98 14 -6 14 C-5.57202798 8.29370646 -3.15654048 4.58921384 0 0 Z " fill="#655E5D" transform="translate(113,138)"/>
<path d="M0 0 C0 3.77910478 -0.99703962 4.46106101 -3.5 7.1875 C-4.1496875 7.90292969 -4.799375 8.61835938 -5.46875 9.35546875 C-5.9740625 9.89816406 -6.479375 10.44085938 -7 11 C-7.99 10.67 -8.98 10.34 -10 10 C-9.52949219 9.61328125 -9.05898438 9.2265625 -8.57421875 8.828125 C-5.3182388 6.10469664 -2.34546467 3.58718126 0 0 Z " fill="#E0DBD9" transform="translate(291,313)"/>
<path d="M0 0 C2.97 0.495 2.97 0.495 6 1 C6.1875 3.375 6.1875 3.375 6 6 C5.01 6.66 4.02 7.32 3 8 C2.01 7.67 1.02 7.34 0 7 C0.99 6.34 1.98 5.68 3 5 C3.33 4.01 3.66 3.02 4 2 C2.68 1.34 1.36 0.68 0 0 Z " fill="#555051" transform="translate(389,266)"/>
<path d="M0 0 C-0.39803561 2.88575819 -0.79009069 3.82189513 -3.0625 5.75 C-3.701875 6.1625 -4.34125 6.575 -5 7 C-5.33 5.35 -5.66 3.7 -6 2 C-2.25 0 -2.25 0 0 0 Z " fill="#5E5556" transform="translate(123,255)"/>
<path d="M0 0 C0 3.9478088 -1.33724565 5.18508826 -4 8 C-4.99 8 -5.98 8 -7 8 C-5.50902342 4.2047869 -3.24299151 2.38957269 0 0 Z " fill="#605C5B" transform="translate(121,130)"/>
<path d="M0 0 C-2.90600261 1.25664978 -4.79604584 2 -8 2 C-8.33 3.32 -8.66 4.64 -9 6 C-9.99 5.01 -10.98 4.02 -12 3 C-10.75823305 2.29773859 -9.50614401 1.61370891 -8.25 0.9375 C-7.20585937 0.36322266 -7.20585937 0.36322266 -6.140625 -0.22265625 C-3.63859372 -1.1312406 -2.4667645 -0.88336837 0 0 Z " fill="#605A5A" transform="translate(136,125)"/>
<path d="M0 0 C0.99 0.33 1.98 0.66 3 1 C1.68 1.33 0.36 1.66 -1 2 C-0.2236068 5.0745356 -0.2236068 5.0745356 2 7 C0.35 6.67 -1.3 6.34 -3 6 C-2.625 3.5625 -2.625 3.5625 -2 1 C-1.34 0.67 -0.68 0.34 0 0 Z " fill="#4A3F40" transform="translate(108,266)"/>
<path d="M0 0 C1.69141656 0.08963062 3.37959602 0.24577676 5.0625 0.4375 C6.44115234 0.59025391 6.44115234 0.59025391 7.84765625 0.74609375 C8.55792969 0.82988281 9.26820313 0.91367188 10 1 C10 1.33 10 1.66 10 2 C4.62694301 3.67357513 4.62694301 3.67357513 2 4 C0 2.625 0 2.625 -1 1 C-0.67 0.67 -0.34 0.34 0 0 Z " fill="#5D5758" transform="translate(350,121)"/>
</svg>
